<mxfile host="65bd71144e">
    <diagram id="JaeDCQ9dDwxXgXb9oZXs" name="PÃ¡gina-1">
        <mxGraphModel dx="1068" dy="1139" grid="1" gridSize="10" guides="1" tooltips="1" connect="1" arrows="1" fold="1" page="1" pageScale="1" pageWidth="827" pageHeight="1169" math="0" shadow="0">
            <root>
                <mxCell id="0"/>
                <mxCell id="1" parent="0"/>
                <mxCell id="23" value="" style="whiteSpace=wrap;html=1;fillColor=#6d8764;fontColor=#ffffff;strokeColor=#3A5431;" vertex="1" parent="1">
                    <mxGeometry x="990" y="280" width="270" height="200" as="geometry"/>
                </mxCell>
                <mxCell id="6" value="" style="edgeStyle=none;html=1;" edge="1" parent="1" source="3" target="5">
                    <mxGeometry relative="1" as="geometry"/>
                </mxCell>
                <mxCell id="3" value="&lt;b&gt;&lt;font style=&quot;color: rgb(255, 255, 255); font-size: 13px;&quot;&gt;Swag Labs&lt;/font&gt;&lt;/b&gt;" style="rounded=1;whiteSpace=wrap;html=1;fillColor=#e51400;fontColor=#ffffff;strokeColor=#B20000;gradientColor=none;glass=0;shadow=1;" vertex="1" parent="1">
                    <mxGeometry x="340" y="555" width="120" height="60" as="geometry"/>
                </mxCell>
                <mxCell id="8" value="" style="edgeStyle=none;html=1;" edge="1" parent="1" source="5" target="7">
                    <mxGeometry relative="1" as="geometry"/>
                </mxCell>
                <mxCell id="10" value="" style="edgeStyle=none;html=1;exitX=1;exitY=0.5;exitDx=0;exitDy=0;" edge="1" parent="1" source="3" target="9">
                    <mxGeometry relative="1" as="geometry"/>
                </mxCell>
                <mxCell id="12" value="" style="edgeStyle=none;html=1;exitX=1;exitY=0.5;exitDx=0;exitDy=0;" edge="1" parent="1" source="3" target="11">
                    <mxGeometry relative="1" as="geometry"/>
                </mxCell>
                <mxCell id="5" value="&lt;b&gt;&lt;font style=&quot;color: rgb(255, 255, 255); font-size: 13px;&quot;&gt;Main&lt;/font&gt;&lt;/b&gt;" style="rounded=1;whiteSpace=wrap;html=1;fillColor=#e51400;fontColor=#ffffff;strokeColor=#B20000;gradientColor=none;glass=0;shadow=1;" vertex="1" parent="1">
                    <mxGeometry x="540" y="555" width="120" height="60" as="geometry"/>
                </mxCell>
                <mxCell id="14" value="" style="edgeStyle=none;html=1;" edge="1" parent="1" source="7" target="13">
                    <mxGeometry relative="1" as="geometry"/>
                </mxCell>
                <mxCell id="7" value="&lt;b&gt;&lt;font style=&quot;color: rgb(255, 255, 255); font-size: 13px;&quot;&gt;Login&lt;/font&gt;&lt;/b&gt;" style="rounded=1;whiteSpace=wrap;html=1;fillColor=#e51400;fontColor=#ffffff;strokeColor=#B20000;gradientColor=none;glass=0;shadow=1;" vertex="1" parent="1">
                    <mxGeometry x="740" y="560" width="120" height="60" as="geometry"/>
                </mxCell>
                <mxCell id="9" value="&lt;b&gt;&lt;font style=&quot;color: rgb(255, 255, 255); font-size: 13px;&quot;&gt;header&lt;/font&gt;&lt;/b&gt;" style="rounded=1;whiteSpace=wrap;html=1;fillColor=#6d8764;fontColor=#ffffff;strokeColor=#3A5431;glass=0;shadow=1;" vertex="1" parent="1">
                    <mxGeometry x="540" y="460" width="120" height="60" as="geometry"/>
                </mxCell>
                <mxCell id="11" value="&lt;b&gt;&lt;font style=&quot;color: rgb(255, 255, 255); font-size: 13px;&quot;&gt;footer&lt;/font&gt;&lt;/b&gt;" style="rounded=1;whiteSpace=wrap;html=1;fillColor=#a0522d;fontColor=#ffffff;strokeColor=#6D1F00;glass=0;shadow=1;" vertex="1" parent="1">
                    <mxGeometry x="540" y="650" width="120" height="60" as="geometry"/>
                </mxCell>
                <mxCell id="20" value="" style="edgeStyle=none;html=1;exitX=0.5;exitY=0;exitDx=0;exitDy=0;entryX=0.25;entryY=1;entryDx=0;entryDy=0;" edge="1" parent="1" source="13" target="23">
                    <mxGeometry relative="1" as="geometry"/>
                </mxCell>
                <mxCell id="22" value="" style="edgeStyle=none;html=1;exitX=1;exitY=0.5;exitDx=0;exitDy=0;" edge="1" parent="1" source="23" target="21">
                    <mxGeometry relative="1" as="geometry"/>
                </mxCell>
                <mxCell id="13" value="&lt;b&gt;&lt;font style=&quot;color: rgb(255, 255, 255); font-size: 13px;&quot;&gt;Username and Password required&lt;/font&gt;&lt;/b&gt;" style="rounded=1;whiteSpace=wrap;html=1;fillColor=#e51400;fontColor=#ffffff;strokeColor=#B20000;gradientColor=none;glass=0;shadow=1;" vertex="1" parent="1">
                    <mxGeometry x="940" y="560" width="120" height="60" as="geometry"/>
                </mxCell>
                <mxCell id="15" value="&lt;b&gt;&lt;font style=&quot;color: rgb(255, 255, 255); font-size: 13px;&quot;&gt;Accepted usernames are:&lt;br&gt;&lt;/font&gt;&lt;/b&gt;&lt;b style=&quot;color: rgb(63, 63, 63); font-size: 13px; background-color: transparent;&quot;&gt;&lt;font style=&quot;color: rgb(255, 255, 255);&quot;&gt;standard_user&lt;/font&gt;&lt;/b&gt;&lt;b&gt;&lt;font style=&quot;color: rgb(255, 255, 255); font-size: 13px;&quot;&gt;&lt;br&gt;&lt;/font&gt;&lt;/b&gt;&lt;b style=&quot;color: rgb(63, 63, 63); font-size: 13px; background-color: transparent;&quot;&gt;&lt;font style=&quot;color: rgb(255, 255, 255);&quot;&gt;locked_out_user&lt;/font&gt;&lt;/b&gt;&lt;b&gt;&lt;font style=&quot;color: rgb(255, 255, 255); font-size: 13px;&quot;&gt;&lt;br&gt;&lt;/font&gt;&lt;/b&gt;&lt;b style=&quot;color: rgb(63, 63, 63); font-size: 13px; background-color: transparent;&quot;&gt;&lt;font style=&quot;color: rgb(255, 255, 255);&quot;&gt;pronlem_user&lt;/font&gt;&lt;/b&gt;&lt;b&gt;&lt;font style=&quot;color: rgb(255, 255, 255); font-size: 13px;&quot;&gt;&lt;br&gt;&lt;/font&gt;&lt;/b&gt;&lt;b style=&quot;color: rgb(63, 63, 63); font-size: 13px; background-color: transparent;&quot;&gt;&lt;font style=&quot;color: rgb(255, 255, 255);&quot;&gt;performance_glitch_user&lt;/font&gt;&lt;/b&gt;&lt;b&gt;&lt;font style=&quot;color: rgb(255, 255, 255); font-size: 13px;&quot;&gt;&lt;/font&gt;&lt;/b&gt;" style="rounded=1;whiteSpace=wrap;html=1;fillColor=#e51400;fontColor=#ffffff;strokeColor=#B20000;gradientColor=none;glass=0;shadow=1;" vertex="1" parent="1">
                    <mxGeometry x="1010" y="300" width="180" height="100" as="geometry"/>
                </mxCell>
                <mxCell id="19" value="&lt;b&gt;&lt;font style=&quot;color: rgb(255, 255, 255); font-size: 13px;&quot;&gt;Password for all users:&lt;br&gt;secret_sauce&lt;/font&gt;&lt;/b&gt;" style="rounded=1;whiteSpace=wrap;html=1;fillColor=#e51400;fontColor=#ffffff;strokeColor=#B20000;gradientColor=none;glass=0;shadow=1;" vertex="1" parent="1">
                    <mxGeometry x="1110" y="400" width="120" height="60" as="geometry"/>
                </mxCell>
                <mxCell id="21" value="&lt;b&gt;&lt;font style=&quot;color: rgb(255, 255, 255); font-size: 13px;&quot;&gt;Selected &quot;standard_user&quot; and &quot;secret_sauce&quot;&lt;/font&gt;&lt;/b&gt;" style="rounded=1;whiteSpace=wrap;html=1;fillColor=#e51400;fontColor=#ffffff;strokeColor=#B20000;gradientColor=none;glass=0;shadow=1;" vertex="1" parent="1">
                    <mxGeometry x="1241" y="540" width="120" height="80" as="geometry"/>
                </mxCell>
            </root>
        </mxGraphModel>
    </diagram>
</mxfile>